<mxfile host="app.diagrams.net" modified="2021-02-19T22:53:05.955Z" agent="5.0 (Windows NT 10.0; Win64; x64) AppleWebKit/537.36 (KHTML, like Gecko) Chrome/88.0.4324.150 Safari/537.36" etag="nXKJ2D7GzYzXkTCe0SEv" version="14.4.2" type="github">
  <diagram id="MCrErEPo9ilewAODCz-R" name="Page-1">
    <mxGraphModel dx="1849" dy="1638" grid="1" gridSize="10" guides="1" tooltips="1" connect="1" arrows="1" fold="1" page="1" pageScale="1" pageWidth="827" pageHeight="1169" math="0" shadow="0">
      <root>
        <mxCell id="0" />
        <mxCell id="1" parent="0" />
        <mxCell id="4mogOLO7gWN9tjYVBM8P-2" value="" style="endArrow=none;html=1;sketch=1;strokeWidth=2" parent="1" edge="1">
          <mxGeometry width="50" height="50" relative="1" as="geometry">
            <mxPoint as="sourcePoint" />
            <mxPoint x="800" as="targetPoint" />
          </mxGeometry>
        </mxCell>
        <mxCell id="4mogOLO7gWN9tjYVBM8P-3" value="" style="endArrow=none;html=1;sketch=1;strokeWidth=2" parent="1" edge="1">
          <mxGeometry width="50" height="50" relative="1" as="geometry">
            <mxPoint as="sourcePoint" />
            <mxPoint y="450" as="targetPoint" />
          </mxGeometry>
        </mxCell>
        <mxCell id="4mogOLO7gWN9tjYVBM8P-4" value="" style="endArrow=none;html=1;sketch=1;strokeWidth=2" parent="1" edge="1">
          <mxGeometry width="50" height="50" relative="1" as="geometry">
            <mxPoint y="450" as="sourcePoint" />
            <mxPoint x="800" y="450" as="targetPoint" />
          </mxGeometry>
        </mxCell>
        <mxCell id="4mogOLO7gWN9tjYVBM8P-5" value="" style="endArrow=none;html=1;sketch=1;strokeWidth=2" parent="1" edge="1">
          <mxGeometry width="50" height="50" relative="1" as="geometry">
            <mxPoint x="800" as="sourcePoint" />
            <mxPoint x="800" y="450" as="targetPoint" />
          </mxGeometry>
        </mxCell>
        <mxCell id="4mogOLO7gWN9tjYVBM8P-7" value="" style="verticalLabelPosition=bottom;verticalAlign=top;html=1;shape=mxgraph.basic.pie;startAngle=0;endAngle=0.8051130502332454;sketch=1;strokeWidth=2;fillColor=#4BDB02;" parent="1" vertex="1">
          <mxGeometry x="80" y="100" width="130" height="130" as="geometry" />
        </mxCell>
        <mxCell id="z-4D-xyZi6Ggd6ufVYCo-1" value="" style="endArrow=classic;html=1;sketch=1;strokeWidth=2" parent="1" edge="1">
          <mxGeometry width="50" height="50" relative="1" as="geometry">
            <mxPoint x="422.5" y="240" as="sourcePoint" />
            <mxPoint x="767.5" y="240" as="targetPoint" />
          </mxGeometry>
        </mxCell>
        <mxCell id="z-4D-xyZi6Ggd6ufVYCo-3" value="" style="endArrow=classic;html=1;sketch=1;strokeWidth=2" parent="1" edge="1">
          <mxGeometry width="50" height="50" relative="1" as="geometry">
            <mxPoint x="430" y="250" as="sourcePoint" />
            <mxPoint x="430" y="100" as="targetPoint" />
          </mxGeometry>
        </mxCell>
        <mxCell id="z-4D-xyZi6Ggd6ufVYCo-4" value="" style="rounded=1;whiteSpace=wrap;html=1;strokeWidth=2;fillWeight=4;hachureGap=8;hachureAngle=45;fillColor=#1ba1e2;sketch=1;rotation=-90;" parent="1" vertex="1">
          <mxGeometry x="540" y="150" width="110" height="60" as="geometry" />
        </mxCell>
        <mxCell id="z-4D-xyZi6Ggd6ufVYCo-5" value="" style="rounded=1;whiteSpace=wrap;html=1;strokeWidth=2;fillWeight=4;hachureGap=8;hachureAngle=45;fillColor=#B8E916;sketch=1;rotation=-90;" parent="1" vertex="1">
          <mxGeometry x="432.5" y="142.5" width="130" height="55" as="geometry" />
        </mxCell>
        <mxCell id="z-4D-xyZi6Ggd6ufVYCo-6" value="" style="rounded=1;whiteSpace=wrap;html=1;strokeWidth=2;fillWeight=4;hachureGap=8;hachureAngle=45;fillColor=#FF9900;sketch=1;rotation=-90;" parent="1" vertex="1">
          <mxGeometry x="660" y="170" width="70" height="60" as="geometry" />
        </mxCell>
        <mxCell id="z-4D-xyZi6Ggd6ufVYCo-7" value="" style="verticalLabelPosition=bottom;verticalAlign=top;html=1;shape=mxgraph.basic.pie;endAngle=0;startAngle=0.8051130502332454;sketch=1;strokeWidth=2;fillColor=#FF3503;" parent="1" vertex="1">
          <mxGeometry x="80" y="100" width="130" height="130" as="geometry" />
        </mxCell>
        <mxCell id="KP0oGa1CEJmA514e3bT1-1" value="&lt;font style=&quot;font-size: 24px&quot;&gt;&lt;b&gt;Registry-wide Analytics&lt;/b&gt;&lt;/font&gt;" style="text;html=1;strokeColor=none;fillColor=none;align=center;verticalAlign=middle;whiteSpace=wrap;rounded=0;" vertex="1" parent="1">
          <mxGeometry x="70" y="20" width="280" height="20" as="geometry" />
        </mxCell>
        <mxCell id="KP0oGa1CEJmA514e3bT1-3" value="" style="verticalLabelPosition=bottom;verticalAlign=top;html=1;shape=mxgraph.basic.pie;startAngle=0;endAngle=0.375;sketch=1;strokeWidth=2;fillColor=#FFCCCC;" vertex="1" parent="1">
          <mxGeometry x="80" y="290" width="130" height="130" as="geometry" />
        </mxCell>
        <mxCell id="KP0oGa1CEJmA514e3bT1-5" value="&lt;font style=&quot;font-size: 14px&quot;&gt;&lt;b&gt;Popular Flags&lt;/b&gt;&lt;/font&gt;" style="text;html=1;strokeColor=none;fillColor=none;align=center;verticalAlign=middle;whiteSpace=wrap;rounded=0;" vertex="1" parent="1">
          <mxGeometry x="95" y="260" width="100" height="20" as="geometry" />
        </mxCell>
        <mxCell id="KP0oGa1CEJmA514e3bT1-6" value="&lt;font style=&quot;font-size: 14px&quot;&gt;&lt;b&gt;Valid To Invalid Ratio&lt;/b&gt;&lt;/font&gt;" style="text;html=1;strokeColor=none;fillColor=none;align=center;verticalAlign=middle;whiteSpace=wrap;rounded=0;" vertex="1" parent="1">
          <mxGeometry x="70" y="70" width="150" height="20" as="geometry" />
        </mxCell>
        <mxCell id="KP0oGa1CEJmA514e3bT1-7" value="" style="verticalLabelPosition=bottom;verticalAlign=top;html=1;shape=mxgraph.basic.pie;endAngle=0;startAngle=0.375;sketch=1;strokeWidth=2;fillColor=#FFB725;" vertex="1" parent="1">
          <mxGeometry x="80" y="290" width="130" height="130" as="geometry" />
        </mxCell>
        <mxCell id="KP0oGa1CEJmA514e3bT1-8" value="" style="ellipse;whiteSpace=wrap;html=1;aspect=fixed;sketch=1;strokeWidth=2" vertex="1" parent="1">
          <mxGeometry x="120" y="140" width="50" height="50" as="geometry" />
        </mxCell>
        <mxCell id="KP0oGa1CEJmA514e3bT1-9" value="" style="ellipse;whiteSpace=wrap;html=1;aspect=fixed;sketch=1;strokeWidth=2" vertex="1" parent="1">
          <mxGeometry x="120" y="330" width="50" height="50" as="geometry" />
        </mxCell>
        <mxCell id="KP0oGa1CEJmA514e3bT1-10" value="&lt;font style=&quot;font-size: 14px&quot;&gt;&lt;b&gt;Domains With Most Smart Contracts&lt;/b&gt;&lt;/font&gt;" style="text;html=1;strokeColor=none;fillColor=none;align=center;verticalAlign=middle;whiteSpace=wrap;rounded=0;" vertex="1" parent="1">
          <mxGeometry x="470" y="70" width="250" height="20" as="geometry" />
        </mxCell>
        <mxCell id="KP0oGa1CEJmA514e3bT1-11" value="&lt;font style=&quot;font-size: 14px&quot;&gt;&lt;b&gt;Expiry of Smart Contracts&lt;/b&gt;&lt;/font&gt;" style="text;html=1;strokeColor=none;fillColor=none;align=center;verticalAlign=middle;whiteSpace=wrap;rounded=0;" vertex="1" parent="1">
          <mxGeometry x="470" y="260" width="250" height="20" as="geometry" />
        </mxCell>
        <mxCell id="KP0oGa1CEJmA514e3bT1-12" value="" style="endArrow=classic;html=1;sketch=1;strokeWidth=2" edge="1" parent="1">
          <mxGeometry width="50" height="50" relative="1" as="geometry">
            <mxPoint x="422.5" y="430" as="sourcePoint" />
            <mxPoint x="767.5" y="430" as="targetPoint" />
          </mxGeometry>
        </mxCell>
        <mxCell id="KP0oGa1CEJmA514e3bT1-13" value="" style="endArrow=classic;html=1;sketch=1;strokeWidth=2" edge="1" parent="1">
          <mxGeometry width="50" height="50" relative="1" as="geometry">
            <mxPoint x="430" y="440" as="sourcePoint" />
            <mxPoint x="430" y="290" as="targetPoint" />
          </mxGeometry>
        </mxCell>
        <mxCell id="KP0oGa1CEJmA514e3bT1-14" value="" style="rounded=1;whiteSpace=wrap;html=1;strokeWidth=2;fillWeight=4;hachureGap=8;hachureAngle=45;fillColor=#FF4925;sketch=1;rotation=-90;" vertex="1" parent="1">
          <mxGeometry x="535" y="335" width="120" height="60" as="geometry" />
        </mxCell>
        <mxCell id="KP0oGa1CEJmA514e3bT1-15" value="" style="rounded=1;whiteSpace=wrap;html=1;strokeWidth=2;fillWeight=4;hachureGap=8;hachureAngle=45;fillColor=#7F00FF;sketch=1;rotation=-90;" vertex="1" parent="1">
          <mxGeometry x="468.75" y="368.75" width="57.5" height="55" as="geometry" />
        </mxCell>
        <mxCell id="KP0oGa1CEJmA514e3bT1-16" value="" style="rounded=1;whiteSpace=wrap;html=1;strokeWidth=2;fillWeight=4;hachureGap=8;hachureAngle=45;fillColor=#CCCC00;sketch=1;rotation=-90;" vertex="1" parent="1">
          <mxGeometry x="655" y="355" width="80" height="60" as="geometry" />
        </mxCell>
      </root>
    </mxGraphModel>
  </diagram>
</mxfile>
